<svg width="1200" height="630" viewBox="0 0 1200 630" fill="none" xmlns="http://www.w3.org/2000/svg">
  <!-- Background -->
  <rect width="1200" height="630" fill="#0f172a"/>

  <!-- Gradient overlay -->
  <defs>
    <linearGradient id="grad1" x1="0%" y1="0%" x2="100%" y2="100%">
      <stop offset="0%" style="stop-color:#1e293b;stop-opacity:1" />
      <stop offset="100%" style="stop-color:#0f172a;stop-opacity:1" />
    </linearGradient>
    <linearGradient id="hexGrad" x1="0%" y1="0%" x2="100%" y2="100%">
      <stop offset="0%" style="stop-color:#10b981" />
      <stop offset="100%" style="stop-color:#6366f1" />
    </linearGradient>
  </defs>
  <rect width="1200" height="630" fill="url(#grad1)"/>

  <!-- Decorative elements -->
  <circle cx="100" cy="100" r="200" fill="#10b981" opacity="0.05"/>
  <circle cx="1100" cy="530" r="250" fill="#6366f1" opacity="0.05"/>

  <!-- Logo hexagon -->
  <g transform="translate(510, 100)">
    <polygon points="90,15 165,53 165,127 90,165 15,127 15,53" fill="none" stroke="url(#hexGrad)" stroke-width="4"/>
    <circle cx="90" cy="15" r="10" fill="#10b981"/>
    <circle cx="165" cy="53" r="10" fill="#6366f1"/>
    <circle cx="165" cy="127" r="10" fill="#10b981"/>
    <circle cx="90" cy="165" r="10" fill="#6366f1"/>
    <circle cx="15" cy="127" r="10" fill="#6366f1"/>
    <circle cx="15" cy="53" r="10" fill="#10b981"/>
    <text x="90" y="80" text-anchor="middle" fill="#ffffff" font-family="Arial, sans-serif" font-size="32" font-weight="bold">NODE</text>
    <text x="90" y="115" text-anchor="middle" fill="#ffffff" font-family="Arial, sans-serif" font-size="32" font-weight="bold">PRESS</text>
  </g>

  <!-- Main title -->
  <text x="600" y="350" text-anchor="middle" fill="#ffffff" font-family="Arial, sans-serif" font-size="64" font-weight="bold">NodePress CMS</text>

  <!-- Subtitle -->
  <text x="600" y="410" text-anchor="middle" fill="#94a3b8" font-family="Arial, sans-serif" font-size="28">Modern Content Management Built with Node.js</text>

  <!-- Features -->
  <text x="600" y="480" text-anchor="middle" fill="#10b981" font-family="Arial, sans-serif" font-size="20">🚀 Fast • 🔒 Secure • 🎨 Customizable • 📱 Mobile Ready</text>

  <!-- URL -->
  <text x="600" y="560" text-anchor="middle" fill="#64748b" font-family="Arial, sans-serif" font-size="18">nodepress.co.uk</text>

  <!-- Border -->
  <rect x="20" y="20" width="1160" height="590" fill="none" stroke="#1e293b" stroke-width="2" rx="20"/>
</svg>

